<svg fill="none" height="1024" viewBox="0 0 1024 1024" width="1024" xmlns="http://www.w3.org/2000/svg" xmlns:xlink="http://www.w3.org/1999/xlink"><linearGradient id="a" x1="0" x2="1024" y1="0" y2="1024"><stop offset="0" stop-color="#1a1a2e"/><stop offset="1" stop-color="#0d0d1a"/></linearGradient><linearGradient id="b" x1="512" x2="512" y1="140" y2="820"><stop offset="0" stop-color="#e85d2a" stop-opacity=".25"/><stop offset="1" stop-color="#e85d2a" stop-opacity=".08"/></linearGradient><filter id="c" height="140%" width="140%" x="-20%" y="-20%"><feGaussianBlur in="SourceGraphic" result="blur" stdDeviation="8"/><feMerge><feMergeNode in="blur"/><feMergeNode in="SourceGraphic"/></feMerge></filter><rect fill="url(#a)" height="1024" rx="228" width="1024"/><g stroke="#e85d2a"><path d="m512 148-312 172v270c0 210 135 395 312 460 177-65 312-250 312-460v-270z" fill="url(#b)" stroke-linejoin="round" stroke-width="24"/><path d="m270 560h100l45-120 60 260 60-350 60 310 45-170 38 100h106" fill="none" filter="url(#c)" stroke-linecap="round" stroke-linejoin="round" stroke-width="34"/><circle cx="512" cy="290" fill="#0d0d1a" fill-opacity=".9" r="52" stroke-width="12"/><path d="m512 290v-32" stroke-linecap="round" stroke-width="10"/><path d="m512 290h24" stroke-linecap="round" stroke-width="10"/></g><circle cx="512" cy="290" fill="#e85d2a" r="7"/></svg>